<?xml version="1.0" encoding="UTF-8" standalone="no"?>
<!-- Created with Inkscape (http://www.inkscape.org/) -->

<svg
   width="85mm"
   height="67.42865mm"
   viewBox="0 0 85 67.42865"
   version="1.1"
   id="svg5"
   xml:space="preserve"
   inkscape:version="1.2.2 (b0a8486541, 2022-12-01)"
   sodipodi:docname="logo chessintion.svg"
   xmlns:inkscape="http://www.inkscape.org/namespaces/inkscape"
   xmlns:sodipodi="http://sodipodi.sourceforge.net/DTD/sodipodi-0.dtd"
   xmlns="http://www.w3.org/2000/svg"
   xmlns:svg="http://www.w3.org/2000/svg"><sodipodi:namedview
     id="namedview7"
     pagecolor="#ffffff"
     bordercolor="#666666"
     borderopacity="1.0"
     inkscape:showpageshadow="2"
     inkscape:pageopacity="0.0"
     inkscape:pagecheckerboard="0"
     inkscape:deskcolor="#d1d1d1"
     inkscape:document-units="mm"
     showgrid="false"
     inkscape:zoom="1"
     inkscape:cx="566"
     inkscape:cy="829"
     inkscape:window-width="1874"
     inkscape:window-height="1011"
     inkscape:window-x="46"
     inkscape:window-y="32"
     inkscape:window-maximized="1"
     inkscape:current-layer="layer1" /><defs
     id="defs2" /><g
     inkscape:label="Capa 1"
     inkscape:groupmode="layer"
     id="layer1"
     transform="translate(-221.24094,-225.06988)"><g
       id="g8014"
       style="fill:#ffffff"
       transform="matrix(0.72847564,0,0,0.72847564,187.1566,147.16733)"
       inkscape:export-filename="g4725.svg"
       inkscape:export-xdpi="353.80701"
       inkscape:export-ydpi="353.80701"><path
         style="fill:#ffffff;fill-opacity:1;stroke-width:0.264583"
         d="m 110.70772,155.89393 c -80.574845,-101.899504 -40.287425,-50.94975 0,0 z"
         id="path7996" /><g
         id="g8008"
         style="fill:#ffffff"
         transform="translate(-3.896567,17.679575)"><path
           id="path7998"
           style="fill:#ffffff;fill-opacity:1;stroke-width:0.264583"
           d="m 73.307027,89.259569 v 4.180623 4.18114 l -1.472261,0.72037 c -3.308037,1.618468 -6.756321,5.183848 -7.81141,8.077548 l -0.580843,1.59318 -6.378422,6.41098 -6.378939,6.41098 0.02584,2.77812 c 0.03961,4.28347 1.339332,6.62575 4.136699,7.45381 0.620869,0.18379 1.621254,0.67888 2.222603,1.09968 2.343518,1.63994 4.227584,1.33091 6.813021,-1.11621 l 1.901693,-1.79938 2.551782,-0.85059 2.552299,-0.85008 1.389062,0.4129 c 0.76411,0.22692 2.32462,0.41237 3.467489,0.41237 h 2.077909 l -0.291971,0.54519 c -0.1605,0.2999 -2.340448,2.65138 -4.844666,5.22552 -8.392002,8.62626 -10.908784,14.3055 -10.691854,24.12721 0.08471,3.83552 -0.177733,4.60472 -2.36678,6.9355 -2.081678,2.21645 -2.710732,3.51755 -2.722832,5.63221 l -0.0093,1.5875 -0.906922,0.58756 c -0.498839,0.32307 -1.240222,1.1565 -1.647961,1.85208 l -0.741557,1.26453 -0.09767,2.84427 h 5.16e-4 l -0.09767,2.84427 h 27.281539 27.282059 l -0.003,-2.57969 -0.003,-2.57969 -0.62477,-1.34152 c -0.34361,-0.73792 -1.04053,-1.69041 -1.54874,-2.11666 l -0.92397,-0.77515 -0.14056,-1.5875 c -0.21765,-2.4616 -0.54028,-2.94984 -2.08566,-3.15485 -1.70818,-0.2266 -1.85083,-0.0947 -1.23714,1.14567 0.31569,0.63807 0.48312,1.4331 0.43202,2.05414 l -0.0837,1.01337 -19.579172,0.078 c -19.92348,0.0794 -22.28694,0.0165 -22.52369,-0.60048 -0.347169,-0.90473 0.51582,-2.65933 2.141988,-4.35632 1.793468,-1.87157 2.409817,-2.87225 2.734717,-4.439 l 0.207223,-1.00098 7.926131,-0.15554 c 8.367631,-0.16423 9.807533,-0.33409 14.62288,-1.726 1.264419,-0.36549 2.412509,-0.77658 2.550748,-0.91312 0.1566,-0.15465 -4.506756,-0.24805 -12.36927,-0.24805 H 64.840361 v -2.39261 c 0,-7.48542 2.436306,-12.42863 9.909989,-20.10834 2.653617,-2.72677 5.24451,-5.65127 5.832719,-6.58358 0.582089,-0.92259 1.47122,-2.04856 1.97559,-2.50217 1.89607,-1.70525 2.494737,-2.459 3.280937,-4.13153 l 0.808219,-1.71979 0.01034,-1.91255 c 0.01174,-2.15993 -0.306997,-2.56976 -0.776696,-0.99838 -1.733871,5.8007 -7.297102,8.79354 -13.080856,7.03678 l -1.874821,-0.56948 -1.918229,0.57361 c -3.318327,0.9927 -5.132791,1.95412 -6.912239,3.66283 -1.659479,1.59351 -2.08344,1.80058 -2.78226,1.35805 -0.292159,-0.18501 -0.08138,-0.66209 1.02216,-2.31097 1.860158,-2.7794 0.876571,-2.90608 -2.552816,-0.32866 -2.433617,1.82902 -4.300131,0.20751 -4.313431,-3.74757 l -0.0057,-1.73427 6.22546,-6.33553 6.224943,-6.33604 0.407727,-1.387 c 0.875509,-2.98062 3.886396,-5.94585 7.860502,-7.74113 l 2.050004,-0.926045 -0.1757,-3.147094 -0.176216,-3.146578 0.367419,0.217041 c 1.301899,0.769897 3.64194,2.80447 5.455998,4.74338 2.658439,2.841406 3.039187,2.625466 1.760616,-0.998389 l -0.358118,-1.015442 0.855245,0.170532 c 1.633501,0.326459 3.509368,0.996815 5.042587,1.801441 l 1.542021,0.809253 0.91984,-1.004074 c 0.5058,-0.552118 0.88181,-1.041578 0.83561,-1.087788 -1.38739,-1.387397 -6.195917,-3.151836 -9.336896,-3.426148 L 80.847652,93.134267 79.392444,92.135879 C 77.612336,90.914164 75.622213,89.896711 74.299215,89.53242 Z m 21.389908,9.35085 -0.91984,1.003556 -0.91984,1.003555 1.25677,1.31103 c 1.42113,1.48288 1.75977,1.56414 2.85822,0.68523 l 0.77929,-0.62322 -0.81908,-1.02939 c -0.45036,-0.56596 -1.13732,-1.32629 -1.52703,-1.689819 z m 4.56923,6.027541 c -0.21552,-2.6e-4 -0.53173,0.28239 -1.13998,0.84801 l -0.97772,0.90951 0.62115,1.53065 0.62167,1.53118 1.37408,0.0806 1.374595,0.0811 -0.17002,-1.00665 -0.50177,-1.60249 -0.666635,-1.52187 c -0.20497,-0.56659 -0.31985,-0.84982 -0.53537,-0.85008 z m -25.694554,4.15789 -1.389063,0.001 c -2.000228,10e-4 -4.431771,1.90069 -4.431771,3.46181 0,0.19418 0.254445,0.23402 0.727604,0.11368 0.40018,-0.10177 1.320701,-0.27992 2.04587,-0.39584 1.413439,-0.22593 3.04736,-1.671 3.04736,-2.69544 z m 25.594824,4.20336 0.16329,0.6103 c 0.0899,0.33569 0.16492,1.83069 0.16692,3.32228 l 0.004,2.71197 h 1.455215 1.45521 c 0,0 0.0688,-0.94924 -0.0584,-2.71197 l -0.25683,-2.77813 -0.0822,-0.99219 -1.42369,-0.0811 z m -42.853202,8.97206 c -0.07759,-2.6e-4 -0.160996,0.008 -0.250631,0.0264 l -0.879533,0.1788 -0.08268,1.14515 c -0.04556,0.6299 -0.01445,1.32382 0.06925,1.54202 l 0.151929,0.39688 0.592212,-0.39274 c 1.377711,-0.91356 1.563354,-2.89254 0.399459,-2.89647 z m 42.658382,1.37666 v 0.64596 c 0,0.35535 -0.41673,2.02127 -0.92605,3.70158 -0.50933,1.6803 -0.92604,3.11559 -0.92604,3.18999 0,0.0744 0.59365,0.13539 1.3193,0.13539 h 1.3193 l 0.373625,-0.89349 c 0.52944,-1.26712 1.4857,-5.15212 1.4857,-6.03581 v -0.74362 h -1.32292 z m -2.77813,10.72338 -0.44183,1.3193 c -0.243,0.72545 -0.45132,1.52713 -0.46302,1.7818 l -0.0212,0.46302 h 1.29036 1.29036 l 0.41444,-1.64641 c 0.48803,-1.93738 0.59015,-1.72502 -0.87849,-1.83141 z m 1.22266,6.18102 -1.40508,0.0806 -1.40508,0.0806 -0.0822,1.13894 -0.0822,1.13895 1.40508,-0.0806 1.40508,-0.0806 0.0822,-1.13895 z m -2.67838,5.58518 0.002,0.59532 c 0.002,0.81379 0.42528,3.33362 0.7829,4.66173 l 0.29404,1.09295 h 1.47329 1.4733 l -0.15555,-0.40514 c -0.2968,-0.77345 -0.92423,-3.43785 -1.10381,-4.68808 l -0.18035,-1.25678 h -1.29294 z m 2.04432,13.99088 0.1788,1.1405 c 0.0984,0.62726 0.52546,1.88464 0.94877,2.79415 l 0.76947,1.65364 h 1.733735 c 2.00282,0 1.98804,0.0209 0.92553,-1.30121 -0.44451,-0.55313 -1.09267,-1.70702 -1.440225,-2.56419 l -0.632,-1.55856 -1.24178,-0.0822 z m -38.077784,14.84871 22.051884,0.001 22.051885,0.001 0.84284,0.51419 c 1.05326,0.6422 1.36867,1.22201 1.46348,2.6913 l 0.0749,1.15807 -24.407804,0.0439 -24.407812,0.0439 v -1.06143 c 0,-1.26617 0.593856,-2.3663 1.597835,-2.95951 z" /><g
           id="g8006"
           style="fill:#ffffff;fill-opacity:1"><g
             id="g8002"
             style="fill:#ffffff;fill-opacity:1"><g
               id="g8000"
               style="fill:#ffffff;fill-opacity:1" /></g><path
             id="path8004"
             style="color:#000000;fill:#ffffff;fill-opacity:1;-inkscape-stroke:none"
             d="m 139.83984,145.74414 -8.1914,9.36328 0.47851,0.41797 8.19141,-9.36133 z m 0.082,-0.0664 -8.1914,4.68164 0.31445,0.55274 8.19336,-4.68164 z m -8.03515,-0.041 v 0.63476 h 8.19336 v -0.63476 z m 0.1582,-4.64063 -0.31445,0.55274 8.1914,4.68164 0.31641,-0.55274 z m 0.082,-4.61328 -0.47851,0.41797 8.1914,9.36328 0.47852,-0.41992 z m -10.57617,12.2461 -0.39258,0.5 8.19141,6.4375 0.39453,-0.5 z m 0.0684,-5.77735 -0.5293,0.35352 8.19336,12.28711 0.5293,-0.35157 z m -0.19726,5.7168 -0.13477,0.62305 8.19336,1.7539 0.13281,-0.62109 z m 0.14843,-5.77344 -0.43164,0.4668 8.19141,7.60742 0.43359,-0.4668 z m 7.86914,2.85938 -8.1914,2.92578 0.21289,0.59961 8.19336,-2.92578 z m -7.97851,-2.92578 -0.21289,0.5996 8.1914,2.92579 0.21485,-0.59961 z m 7.86914,-1.68946 -8.19141,7.60742 0.43164,0.4668 8.19336,-7.60742 z m 0.15039,-0.0781 -8.19336,1.75586 0.13477,0.62304 8.1914,-1.75586 z m -0.19727,-4.54688 -8.19336,12.28906 0.5293,0.35352 8.19336,-12.28906 z m 0.0664,-0.0723 -8.19141,6.43554 0.39258,0.5 8.19336,-6.43554 z m 11.90039,8.12304 c -0.81822,0 -1.48828,0.67007 -1.48828,1.48828 0,0.81822 0.67006,1.48829 1.48828,1.48829 0.81822,0 1.48828,-0.67007 1.48828,-1.48829 0,-0.81821 -0.67006,-1.48828 -1.48828,-1.48828 z m 0,0.63672 c 0.4745,0 0.85352,0.37707 0.85352,0.85156 0,0.4745 -0.37902,0.85352 -0.85352,0.85352 -0.4745,0 -0.85156,-0.37902 -0.85156,-0.85352 0,-0.47449 0.37706,-0.85156 0.85156,-0.85156 z m -21.06641,2.28906 c -0.81821,0 -1.48828,0.67007 -1.48828,1.48829 0,0.81821 0.67007,1.48828 1.48828,1.48828 0.81822,0 1.48829,-0.67007 1.48829,-1.48828 0,-0.81822 -0.67007,-1.48829 -1.48829,-1.48829 z m 0,0.63672 c 0.4745,0 0.85352,0.37707 0.85352,0.85157 0,0.47449 -0.37902,0.85351 -0.85352,0.85351 -0.47449,0 -0.85156,-0.37902 -0.85156,-0.85351 0,-0.4745 0.37707,-0.85157 0.85156,-0.85157 z m 0,-6.48828 c -0.81821,0 -1.48828,0.67007 -1.48828,1.48828 0,0.81822 0.67007,1.48828 1.48828,1.48828 0.81822,0 1.48829,-0.67006 1.48829,-1.48828 0,-0.81821 -0.67007,-1.48828 -1.48829,-1.48828 z m 0,0.63672 c 0.4745,0 0.85352,0.37707 0.85352,0.85156 0,0.4745 -0.37902,0.85352 -0.85352,0.85352 -0.47449,0 -0.85156,-0.37902 -0.85156,-0.85352 0,-0.47449 0.37707,-0.85156 0.85156,-0.85156 z m 10.53321,-2.39062 c -0.81822,0 -1.48828,0.67006 -1.48828,1.48828 0,0.81822 0.67006,1.48828 1.48828,1.48828 0.81821,0 1.48828,-0.67006 1.48828,-1.48828 0,-0.81822 -0.67007,-1.48828 -1.48828,-1.48828 z m 0,0.63476 c 0.47449,0 0.85351,0.37902 0.85351,0.85352 0,0.47449 -0.37902,0.85156 -0.85351,0.85156 -0.4745,0 -0.85157,-0.37707 -0.85157,-0.85156 0,-0.4745 0.37707,-0.85352 0.85157,-0.85352 z m 0,-5.3164 c -0.81822,0 -1.48828,0.67006 -1.48828,1.48828 0,0.81821 0.67006,1.48828 1.48828,1.48828 0.81821,0 1.48828,-0.67007 1.48828,-1.48828 0,-0.81822 -0.67007,-1.48828 -1.48828,-1.48828 z m 0,0.63476 c 0.47449,0 0.85351,0.37902 0.85351,0.85352 0,0.47449 -0.37902,0.85156 -0.85351,0.85156 -0.4745,0 -0.85157,-0.37707 -0.85157,-0.85156 0,-0.4745 0.37707,-0.85352 0.85157,-0.85352 z m 0,8.72656 c -0.81822,0 -1.48828,0.67007 -1.48828,1.48828 0,0.81822 0.67006,1.48829 1.48828,1.48829 0.81821,0 1.48828,-0.67007 1.48828,-1.48829 0,-0.81821 -0.67007,-1.48828 -1.48828,-1.48828 z m 0,0.63672 c 0.47449,0 0.85351,0.37707 0.85351,0.85156 0,0.4745 -0.37902,0.85352 -0.85351,0.85352 -0.4745,0 -0.85157,-0.37902 -0.85157,-0.85352 0,-0.47449 0.37707,-0.85156 0.85157,-0.85156 z m 0,4.04492 c -0.81822,0 -1.48828,0.67007 -1.48828,1.48829 0,0.81821 0.67006,1.48828 1.48828,1.48828 0.81821,0 1.48828,-0.67007 1.48828,-1.48828 0,-0.81822 -0.67007,-1.48829 -1.48828,-1.48829 z m 0,0.63672 c 0.47449,0 0.85351,0.37707 0.85351,0.85157 0,0.47449 -0.37902,0.85351 -0.85351,0.85351 -0.4745,0 -0.85157,-0.37902 -0.85157,-0.85351 0,-0.4745 0.37707,-0.85157 0.85157,-0.85157 z m 0,4.04492 c -0.81822,0 -1.48828,0.67007 -1.48828,1.48829 0,0.81821 0.67006,1.48828 1.48828,1.48828 0.81821,0 1.48828,-0.67007 1.48828,-1.48828 0,-0.81822 -0.67007,-1.48829 -1.48828,-1.48829 z m 0,0.63672 c 0.47449,0 0.85351,0.37707 0.85351,0.85157 0,0.47449 -0.37902,0.85351 -0.85351,0.85351 -0.4745,0 -0.85157,-0.37902 -0.85157,-0.85351 0,-0.4745 0.37707,-0.85157 0.85157,-0.85157 z m 3.93164,1.53516 -2.19922,0.22461 0.0469,0.46289 1.73633,-0.17773 0.17774,1.73632 0.46289,-0.0469 z m -0.53907,0.13477 c 0,0 -0.85865,1.05627 -3.79882,3.85156 -1.45842,1.38654 -2.33674,1.95315 -2.8086,2.16601 -0.23592,0.10644 -0.36864,0.12406 -0.41601,0.125 -0.0237,4.8e-4 -0.0264,-0.003 -0.0156,0 0.0107,0.003 0.0645,0.0332 0.0645,0.0332 l -0.37696,0.54687 c 0,0 0.0732,0.0441 0.13086,0.0606 0.0576,0.0164 0.12792,0.0251 0.21094,0.0234 0.16603,-0.003 0.38157,-0.0489 0.67578,-0.18164 0.58843,-0.26546 1.5054,-0.87759 2.99414,-2.29297 2.95414,-2.80857 3.85547,-3.91211 3.85547,-3.91211 z m -7.52148,13.92382 v 0.76563 h 17.40039 v -0.76563 z m 10.94727,-16.36328 v 15.52344 h 3.16406 v -15.52344 z m -5.45313,7.48633 v 7.85156 h 3.16406 v -7.85156 z m -5.45312,4.04102 v 3.97851 h 3.16601 v -3.97851 z m 21.38671,-50.51368 v 10.78907 h 1.59961 v -10.78907 z m -2.82617,3.80665 v 6.98242 h 1.59961 v -6.98242 z m -2.82617,0.90429 v 6.07813 h 1.59961 v -6.07813 z m -2.82812,2.41406 v 3.66407 h 1.60156 v -3.66407 z m -2.82618,1.81446 v 1.84961 h 1.59961 v -1.84961 z m -2.82617,-1.32227 v 3.17188 h 1.59961 v -3.17188 z m -1.98242,-4.98828 v 10.20703 h 20.70313 v -1 h -19.70313 v -9.20703 z m 21.74805,-17.531249 v 0.228519 c 0,1.90834 -0.11914,2.86636 -0.25391,3.38281 -0.13477,0.51645 -0.27375,0.58669 -0.41016,0.87109 l -0.1582,0.32813 h 3.9336 l -0.15821,-0.32813 c -0.13639,-0.2844 -0.27538,-0.35464 -0.41015,-0.87109 -0.13478,-0.51645 -0.25196,-1.47447 -0.25196,-3.38281 v -0.228519 z m 0.43945,0.457029 h 1.41016 c 0.0137,1.68841 0.10715,2.72409 0.25,3.27149 0.10019,0.38393 0.19295,0.47317 0.28906,0.625 h -2.48828 c 0.0961,-0.15183 0.18887,-0.24107 0.28906,-0.625 0.14285,-0.5474 0.23633,-1.58308 0.25,-3.27149 z m -1.01367,3.89649 c -0.31399,0 -0.57227,0.25827 -0.57227,0.57226 0,0.31399 0.25827,0.57227 0.57227,0.57227 h 3.4375 c 0.314,0 0.57226,-0.25827 0.57226,-0.57227 0,-0.314 -0.25827,-0.57226 -0.57226,-0.57226 z m 0,0.45703 h 3.4375 c 0.0641,0 0.11523,0.0512 0.11523,0.11523 0,0.064 -0.0512,0.11524 -0.11523,0.11524 h -3.4375 c -0.064,0 -0.11328,-0.0512 -0.11328,-0.11524 0,-0.0641 0.0492,-0.11523 0.11328,-0.11523 z m 0.57422,-5.498049 c -0.314,0 -0.57422,0.258275 -0.57422,0.572265 0,0.313994 0.26022,0.572264 0.57422,0.572264 h 2.29101 c 0.314,0 0.57227,-0.25827 0.57227,-0.572264 0,-0.313998 -0.25827,-0.572265 -0.57227,-0.572265 z m 0,0.457031 h 2.29101 c 0.0641,0 0.11328,0.05119 0.11328,0.115234 0,0.06404 -0.0492,0.115235 -0.11328,0.115235 h -2.29101 c -0.064,0 -0.11524,-0.05118 -0.11524,-0.115235 0,-0.06405 0.0512,-0.115234 0.11524,-0.115234 z m 1.14453,-3.435547 c -0.94632,0 -1.71875,0.772432 -1.71875,1.71875 0,0.946318 0.77243,1.716797 1.71875,1.716797 0.94632,0 1.71875,-0.770479 1.71875,-1.716797 0,-0.946318 -0.77243,-1.71875 -1.71875,-1.71875 z m 0,0.457031 c 0.69867,0 1.25976,0.563049 1.25976,1.261719 0,0.69867 -0.56109,1.259766 -1.25976,1.259766 -0.69867,0 -1.25977,-0.561096 -1.25977,-1.259766 0,-0.69867 0.5611,-1.261719 1.25977,-1.261719 z m -2.17578,8.250004 c -0.377,0 -0.6875,0.3105 -0.6875,0.6875 0,0.37699 0.3105,0.68554 0.6875,0.68554 h 4.35351 c 0.377,0 0.68555,-0.30854 0.68555,-0.68554 0,-0.37701 -0.30855,-0.6875 -0.68555,-0.6875 z m 0,0.45703 h 4.35351 c 0.12705,0 0.22852,0.10341 0.22852,0.23047 0,0.12705 -0.10147,0.22851 -0.22852,0.22851 h -4.35351 c -0.12706,0 -0.23047,-0.10145 -0.23047,-0.22851 0,-0.12706 0.10341,-0.23047 0.23047,-0.23047 z m 7.96484,-6.216799 v 0.314453 c 0,2.758816 -0.17548,4.225326 -0.37891,5.109376 -0.20342,0.88404 -0.4379,1.19763 -0.5957,1.74609 l -0.11523,0.40235 h 6.59961 l -0.11524,-0.40235 c -0.15781,-0.54845 -0.39227,-0.86205 -0.5957,-1.74609 C 165.17743,103.62767 165,102.16116 165,99.402344 v -0.314453 z m 0.60938,0.630859 h 3.20117 c 0.0195,2.47591 0.16661,4.03845 0.37304,4.93555 0.16994,0.73849 0.32959,1.02993 0.4668,1.375 h -4.88281 c 0.13721,-0.3451 0.2988,-0.63644 0.46875,-1.375 0.20643,-0.8971 0.35357,-2.45964 0.37305,-4.93555 z m -1.71294,-4.576137 v 1.26227 h 0.63113 v -0.631135 h 0.47335 v 0.946702 h 1.57784 v -0.946702 h 1.26227 v 0.946702 h 1.57783 v -0.946702 h 0.47336 v 0.631135 h 0.63113 v -1.26227 h -1.73562 v 0.946702 h -0.31557 v -0.946702 h -2.52454 v 0.946702 h -0.31556 v -0.946702 z m 5e-5,0.316371 v 2.523438 c 0,0.432472 0.35659,0.789062 0.78906,0.789062 h 5.04883 c 0.43247,0 0.78906,-0.356598 0.78906,-0.789062 v -2.523438 h -0.63086 v 2.523438 c 0,0.08822 -0.07,0.158203 -0.1582,0.158203 h -5.04883 c -0.0882,0 -0.1582,-0.06999 -0.15821,-0.158203 v -2.523438 z m 0.3164,10.570316 c -0.43247,0 -0.78906,0.35659 -0.78906,0.78906 0,0.43247 0.35659,0.78906 0.78906,0.78906 h 5.99414 c 0.43248,0 0.78906,-0.35659 0.78906,-0.78906 0,-0.43246 -0.35658,-0.78906 -0.78906,-0.78906 z m 0,0.63086 h 5.99414 c 0.0882,0 0.15821,0.07 0.15821,0.1582 0,0.0882 -0.07,0.1582 -0.15821,0.1582 h -5.99414 c -0.0882,0 -0.1582,-0.07 -0.1582,-0.1582 0,-0.0882 0.07,-0.1582 0.1582,-0.1582 z m 0.78711,-8.519535 c -0.43247,0 -0.78711,0.356591 -0.78711,0.789062 0,0.432472 0.35464,0.789063 0.78711,0.789063 H 165 c 0.43247,0 0.78906,-0.356591 0.78906,-0.789063 0,-0.432471 -0.35659,-0.789062 -0.78906,-0.789062 z m 0,0.630859 H 165 c 0.0882,0 0.1582,0.06999 0.1582,0.158203 0,0.08821 -0.07,0.158204 -0.1582,0.158204 h -4.41797 c -0.0882,0 -0.15625,-0.06999 -0.15625,-0.158204 0,-0.08821 0.068,-0.158203 0.15625,-0.158203 z m -1.41992,8.205076 c -0.51925,0 -0.94531,0.42801 -0.94531,0.94727 0,0.51925 0.42605,0.94531 0.94531,0.94531 h 7.25976 c 0.51926,0 0.94532,-0.42606 0.94532,-0.94531 0,-0.51925 -0.42607,-0.94727 -0.94532,-0.94727 z m 0,0.63086 h 7.25976 c 0.175,0 0.31446,0.14142 0.31446,0.31641 0,0.17499 -0.13947,0.31445 -0.31446,0.31445 h -7.25976 c -0.17499,0 -0.31445,-0.13947 -0.31445,-0.31445 0,-0.17499 0.13946,-0.31641 0.31445,-0.31641 z m -19.04177,-2.25442 -2.61495,4.5293 h 5.2299 l -0.34108,-0.58997 z m 0,1.57327 1.25217,2.1694 h -2.50434 z m 9.04106,35.0028 0.32644,0.29421 3.0743,2.77079 3.06631,-3.40218 -3.40074,-3.06501 z m 1.23985,-0.0658 1.88947,-2.09644 2.09789,1.89077 -1.88948,2.09645 z m -32.04969,20.2881 0.32643,0.2942 3.07575,2.7721 3.0663,-3.40219 -3.40218,-3.0663 z m 1.24128,-0.0645 1.88947,-2.09645 2.09645,1.88948 -1.88947,2.09644 z m -1.98346,-45.98343 v 0.5 4.71289 h 5.21484 v -5.21289 z m 1,1 h 3.21484 v 3.21289 h -3.21484 z m 32.42187,-26.423833 v 0.382813 3.603516 h 3.98633 v -3.986329 z m 0.76562,0.763672 h 2.45704 v 2.457032 h -2.45704 z m -38.39648,2.695313 v 0.5 4.714844 h 5.21484 v -5.214844 z m 1,1 h 3.21484 v 3.214844 h -3.21484 z m -2.62891,45.529298 c -1.06721,0 -1.93945,0.87223 -1.93945,1.93945 0,1.06722 0.87224,1.94141 1.93945,1.94141 1.06722,0 1.94141,-0.87419 1.94141,-1.94141 0,-1.06722 -0.87419,-1.93945 -1.94141,-1.93945 z m 0,0.74023 c 0.66672,0 1.19922,0.53251 1.19922,1.19922 0,0.66672 -0.5325,1.19922 -1.19922,1.19922 -0.66671,0 -1.19921,-0.5325 -1.19921,-1.19922 0,-0.66671 0.5325,-1.19922 1.19921,-1.19922 z m 48.06446,-24.08398 c -1.06722,0 -1.93946,0.87419 -1.93946,1.94141 0,1.06721 0.87224,1.93945 1.93946,1.93945 1.06722,0 1.9414,-0.87224 1.9414,-1.93945 0,-1.06722 -0.87418,-1.94141 -1.9414,-1.94141 z m 0,0.74219 c 0.66671,0 1.19922,0.5325 1.19922,1.19922 0,0.66671 -0.53251,1.19921 -1.19922,1.19921 -0.66672,0 -1.19922,-0.5325 -1.19922,-1.19921 0,-0.66672 0.5325,-1.19922 1.19922,-1.19922 z M 143.76367,92.238281 c -1.06722,0 -1.93945,0.874189 -1.93945,1.941406 0,1.067218 0.87223,1.939454 1.93945,1.939454 1.06722,0 1.94141,-0.872236 1.94141,-1.939454 0,-1.067217 -0.87419,-1.941406 -1.94141,-1.941406 z m 0,0.742188 c 0.66672,0 1.19922,0.532503 1.19922,1.199218 0,0.666716 -0.5325,1.199219 -1.19922,1.199219 -0.66671,0 -1.19922,-0.532503 -1.19922,-1.199219 0,-0.666715 0.53251,-1.199218 1.19922,-1.199218 z m -33.91992,5.974609 c -1.44011,0 -2.61914,1.177082 -2.61914,2.617192 0,1.4401 1.17903,2.61914 2.61914,2.61914 1.44011,0 2.61719,-1.17904 2.61719,-2.61914 0,-1.44011 -1.17708,-2.617192 -2.61719,-2.617192 z m 0,1 c 0.89967,0 1.61719,0.717522 1.61719,1.617192 0,0.89967 -0.71752,1.61914 -1.61719,1.61914 -0.89967,0 -1.61914,-0.71947 -1.61914,-1.61914 0,-0.89967 0.71947,-1.617192 1.61914,-1.617192 z m 12.44922,-10.125 c -1.44011,0 -2.61914,1.179032 -2.61914,2.619141 0,1.440109 1.17903,2.617187 2.61914,2.617187 1.44011,0 2.61719,-1.177078 2.61719,-2.617187 0,-1.440109 -1.17708,-2.619141 -2.61719,-2.619141 z m 0,1 c 0.89967,0 1.61719,0.719471 1.61719,1.619141 0,0.899669 -0.71752,1.617187 -1.61719,1.617187 -0.89967,0 -1.61914,-0.717518 -1.61914,-1.617187 0,-0.89967 0.71947,-1.619141 1.61914,-1.619141 z m 31.80859,19.082032 c -1.44011,0 -2.61719,1.17708 -2.61719,2.61719 0,1.44011 1.17708,2.61914 2.61719,2.61914 1.44011,0 2.61914,-1.17903 2.61914,-2.61914 0,-1.44011 -1.17903,-2.61719 -2.61914,-2.61719 z m 0,1 c 0.89967,0 1.61914,0.71752 1.61914,1.61719 0,0.89967 -0.71947,1.61914 -1.61914,1.61914 -0.89967,0 -1.61719,-0.71947 -1.61719,-1.61914 0,-0.89967 0.71752,-1.61719 1.61719,-1.61719 z m 3.63672,13.44336 c -1.44011,0 -2.61719,1.17903 -2.61719,2.61914 0,1.44011 1.17708,2.61719 2.61719,2.61719 1.44011,0 2.61914,-1.17708 2.61914,-2.61719 0,-1.44011 -1.17903,-2.61914 -2.61914,-2.61914 z m 0,1 c 0.89967,0 1.61914,0.71947 1.61914,1.61914 0,0.89967 -0.71947,1.61719 -1.61914,1.61719 -0.89967,0 -1.61719,-0.71752 -1.61719,-1.61719 0,-0.89967 0.71752,-1.61914 1.61719,-1.61914 z m -44.58594,7.3164 c -1.44011,0 -2.61718,1.17904 -2.61718,2.61915 0,1.4401 1.17707,2.61718 2.61718,2.61718 1.44011,0 2.61914,-1.17708 2.61914,-2.61718 0,-1.44011 -1.17903,-2.61915 -2.61914,-2.61915 z m 0,1 c 0.89967,0 1.61914,0.71948 1.61914,1.61915 0,0.89967 -0.71947,1.61718 -1.61914,1.61718 -0.89967,0 -1.61718,-0.71751 -1.61718,-1.61718 0,-0.89967 0.71751,-1.61915 1.61718,-1.61915 z m -27.480465,17.63086 c -1.440109,0 -2.617187,1.17904 -2.617188,2.61914 0,1.44011 1.177079,2.61915 2.617188,2.61915 1.440109,0 2.619141,-1.17904 2.619141,-2.61915 0,-1.4401 -1.179032,-2.61914 -2.619141,-2.61914 z m 0,1 c 0.899669,0 1.619141,0.71948 1.619141,1.61914 0,0.89967 -0.719472,1.61915 -1.619141,1.61915 -0.899669,0 -1.617188,-0.71948 -1.617188,-1.61915 0,-0.89966 0.717519,-1.61914 1.617188,-1.61914 z m 35.750005,0.53516 c -1.44011,0 -2.61915,1.17903 -2.61915,2.61914 0,1.44011 1.17904,2.61719 2.61915,2.61719 1.4401,0 2.61914,-1.17708 2.61914,-2.61719 0,-1.44011 -1.17904,-2.61914 -2.61914,-2.61914 z m 0,1 c 0.89966,0 1.61914,0.71947 1.61914,1.61914 0,0.89967 -0.71948,1.61719 -1.61914,1.61719 -0.89967,0 -1.61915,-0.71752 -1.61915,-1.61719 0,-0.89967 0.71948,-1.61914 1.61915,-1.61914 z m -16.25782,4.16602 c -1.44011,0 -2.61914,1.17903 -2.61914,2.61914 0,1.44011 1.17903,2.61718 2.61914,2.61718 1.44011,0 2.61914,-1.17707 2.61914,-2.61718 0,-1.44011 -1.17903,-2.61914 -2.61914,-2.61914 z m 0,1 c 0.89967,0 1.61914,0.71947 1.61914,1.61914 0,0.89967 -0.71947,1.61718 -1.61914,1.61718 -0.89967,0 -1.61914,-0.71751 -1.61914,-1.61718 0,-0.89967 0.71947,-1.61914 1.61914,-1.61914 z m 16.39453,8.08398 c -1.44011,0 -2.61718,1.17708 -2.61718,2.61719 0,1.44011 1.17707,2.61914 2.61718,2.61914 1.44011,0 2.61914,-1.17903 2.61914,-2.61914 0,-1.44011 -1.17903,-2.61719 -2.61914,-2.61719 z m 0,1 c 0.89967,0 1.61914,0.71752 1.61914,1.61719 0,0.89967 -0.71947,1.61914 -1.61914,1.61914 -0.89967,0 -1.61718,-0.71947 -1.61718,-1.61914 0,-0.89967 0.71751,-1.61719 1.61718,-1.61719 z m -5.95117,5.74023 c -1.72682,0 -3.13672,1.4099 -3.13672,3.13672 0,1.72683 1.4099,3.13672 3.13672,3.13672 1.72683,0 3.13672,-1.40989 3.13672,-3.13672 0,-1.72682 -1.40989,-3.13672 -3.13672,-3.13672 z m 0,0.92969 c 1.22453,0 2.20703,0.9825 2.20703,2.20703 0,1.22453 -0.9825,2.20899 -2.20703,2.20899 -1.22453,0 -2.20703,-0.98446 -2.20703,-2.20899 0,-1.22453 0.9825,-2.20703 2.20703,-2.20703 z M 88.308594,162.99023 c -1.726825,0 -3.136719,1.4099 -3.136719,3.13672 0,1.72683 1.409894,3.13672 3.136719,3.13672 1.726824,0 3.136718,-1.40989 3.136718,-3.13672 0,-1.72682 -1.409894,-3.13672 -3.136718,-3.13672 z m 0,0.92969 c 1.224529,0 2.207031,0.9825 2.207031,2.20703 0,1.22453 -0.982502,2.20703 -2.207031,2.20703 -1.22453,0 -2.207032,-0.9825 -2.207032,-2.20703 0,-1.22453 0.982502,-2.20703 2.207032,-2.20703 z m 23.062496,-13.05273 c -1.72682,0 -3.13671,1.40989 -3.13671,3.13672 0,1.72682 1.40989,3.13671 3.13671,3.13671 1.72683,0 3.13672,-1.40989 3.13672,-3.13671 0,-1.72683 -1.40989,-3.13672 -3.13672,-3.13672 z m 0,0.92968 c 1.22453,0 2.20899,0.98251 2.20899,2.20704 0,1.22453 -0.98446,2.20898 -2.20899,2.20898 -1.22453,0 -2.20703,-0.98445 -2.20703,-2.20898 0,-1.22453 0.9825,-2.20704 2.20703,-2.20704 z m 36.92578,-20.80859 c -1.72682,0 -3.13671,1.4099 -3.13671,3.13672 0,1.72682 1.40989,3.13672 3.13671,3.13672 1.72683,0 3.13672,-1.4099 3.13672,-3.13672 0,-1.72682 -1.40989,-3.13672 -3.13672,-3.13672 z m 0,0.92969 c 1.22453,0 2.20704,0.9825 2.20704,2.20703 0,1.22453 -0.98251,2.20703 -2.20704,2.20703 -1.22452,0 -2.20703,-0.9825 -2.20703,-2.20703 0,-1.22453 0.98251,-2.20703 2.20703,-2.20703 z m -18.35351,-4.07227 c -1.72682,0 -3.13672,1.4099 -3.13672,3.13672 0,1.72683 1.4099,3.13672 3.13672,3.13672 1.72682,0 3.13672,-1.40989 3.13672,-3.13672 0,-1.72682 -1.4099,-3.13672 -3.13672,-3.13672 z m 0,0.92969 c 1.22453,0 2.20703,0.9825 2.20703,2.20703 0,1.22453 -0.9825,2.20703 -2.20703,2.20703 -1.22453,0 -2.20703,-0.9825 -2.20703,-2.20703 0,-1.22453 0.9825,-2.20703 2.20703,-2.20703 z m -4.63086,-6.63867 c -1.72682,0 -3.13672,1.40989 -3.13672,3.13672 0,1.72682 1.4099,3.13672 3.13672,3.13672 1.72682,0 3.13672,-1.4099 3.13672,-3.13672 0,-1.72683 -1.4099,-3.13672 -3.13672,-3.13672 z m 0,0.92969 c 1.22453,0 2.20703,0.9825 2.20703,2.20703 0,1.22453 -0.9825,2.20703 -2.20703,2.20703 -1.22453,0 -2.20703,-0.9825 -2.20703,-2.20703 0,-1.22453 0.9825,-2.20703 2.20703,-2.20703 z m -18.86523,12.99414 c -1.72683,0 -3.13672,1.40989 -3.13672,3.13672 0,1.72682 1.40989,3.13671 3.13672,3.13671 1.72682,0 3.13671,-1.40989 3.13671,-3.13671 0,-1.72683 -1.40989,-3.13672 -3.13671,-3.13672 z m 0,0.92968 c 1.22453,0 2.20703,0.98251 2.20703,2.20704 0,1.22453 -0.9825,2.20703 -2.20703,2.20703 -1.22453,0 -2.20704,-0.9825 -2.20704,-2.20703 0,-1.22453 0.98251,-2.20704 2.20704,-2.20704 z m -31.423833,8.98633 c -1.726824,0 -3.136718,1.4099 -3.136718,3.13672 0,1.72683 1.409894,3.13672 3.136718,3.13672 1.726825,0 3.136719,-1.40989 3.136719,-3.13672 0,-1.72682 -1.409894,-3.13672 -3.136719,-3.13672 z m 0,0.92969 c 1.22453,0 2.207032,0.9825 2.207032,2.20703 0,1.22453 -0.982502,2.20703 -2.207032,2.20703 -1.224529,0 -2.207031,-0.9825 -2.207031,-2.20703 0,-1.22453 0.982502,-2.20703 2.207031,-2.20703 z m 6.34375,-10.79883 c -1.726824,0 -3.136718,1.4099 -3.136718,3.13672 0,1.72682 1.409894,3.13672 3.136718,3.13672 1.726825,0 3.136719,-1.4099 3.136719,-3.13672 0,-1.72682 -1.409894,-3.13672 -3.136719,-3.13672 z m 0,0.92969 c 1.22453,0 2.207032,0.9825 2.207032,2.20703 0,1.22453 -0.982502,2.20703 -2.207032,2.20703 -1.224529,0 -2.207031,-0.9825 -2.207031,-2.20703 0,-1.22453 0.982502,-2.20703 2.207031,-2.20703 z m 7.927735,-7.43164 c -1.726824,0 -3.136719,1.40794 -3.136719,3.13476 0,1.72683 1.409895,3.13672 3.136719,3.13672 1.726824,0 3.136719,-1.40989 3.136719,-3.13672 0,-1.72682 -1.409895,-3.13476 -3.136719,-3.13476 z m 0,0.92773 c 1.224529,0 2.207031,0.9825 2.207031,2.20703 0,1.22453 -0.982502,2.20899 -2.207031,2.20899 -1.22453,0 -2.207031,-0.98446 -2.207031,-2.20899 0,-1.22453 0.982501,-2.20703 2.207031,-2.20703 z m 6.310547,-11.83398 c -1.726825,0 -3.136719,1.40989 -3.136719,3.13672 0,1.72682 1.409894,3.13672 3.136719,3.13672 1.726824,0 3.136718,-1.4099 3.136718,-3.13672 0,-1.72683 -1.409894,-3.13672 -3.136718,-3.13672 z m 0,0.92969 c 1.224529,0 2.207031,0.9825 2.207031,2.20703 0,1.22453 -0.982502,2.20703 -2.207031,2.20703 -1.22453,0 -2.208985,-0.9825 -2.208985,-2.20703 0,-1.22453 0.984455,-2.20703 2.208985,-2.20703 z m 16.664061,-4.64063 c -1.72682,0 -3.13672,1.4099 -3.13672,3.13672 0,1.72682 1.4099,3.13672 3.13672,3.13672 1.72683,0 3.13672,-1.4099 3.13672,-3.13672 0,-1.72682 -1.40989,-3.13672 -3.13672,-3.13672 z m 0,0.92969 c 1.22453,0 2.20703,0.9825 2.20703,2.20703 0,1.22453 -0.9825,2.20703 -2.20703,2.20703 -1.22453,0 -2.20703,-0.9825 -2.20703,-2.20703 0,-1.22453 0.9825,-2.20703 2.20703,-2.20703 z m 22.70117,-5.53125 c -1.72682,0 -3.13672,1.40989 -3.13672,3.13672 0,1.72682 1.4099,3.13672 3.13672,3.13672 1.72683,0 3.13672,-1.4099 3.13672,-3.13672 0,-1.72683 -1.40989,-3.13672 -3.13672,-3.13672 z m 0,0.92773 c 1.22453,0 2.20899,0.98446 2.20899,2.20899 0,1.22453 -0.98446,2.20703 -2.20899,2.20703 -1.22453,0 -2.20703,-0.9825 -2.20703,-2.20703 0,-1.22453 0.9825,-2.20899 2.20703,-2.20899 z m -11.76172,-7.42382 c -1.72682,0 -3.13671,1.40989 -3.13671,3.13671 0,1.72683 1.40989,3.13672 3.13671,3.13672 1.72683,0 3.13672,-1.40989 3.13672,-3.13672 0,-1.72682 -1.40989,-3.13671 -3.13672,-3.13671 z m 0,0.92968 c 1.22453,0 2.20704,0.9825 2.20704,2.20703 0,1.22453 -0.98251,2.20704 -2.20704,2.20704 -1.22453,0 -2.20703,-0.98251 -2.20703,-2.20704 0,-1.22453 0.9825,-2.20703 2.20703,-2.20703 z m 8.34571,-11.468748 c -1.72683,0 -3.13672,1.409895 -3.13672,3.136719 0,1.726825 1.40989,3.136719 3.13672,3.136719 1.72682,0 3.13672,-1.409894 3.13672,-3.136719 0,-1.726824 -1.4099,-3.136718 -3.13672,-3.136719 z m 0,0.929688 c 1.22453,0 2.20898,0.982502 2.20898,2.207031 0,1.22453 -0.98445,2.207032 -2.20898,2.207031 -1.22453,0 -2.20703,-0.982501 -2.20703,-2.207031 0,-1.224529 0.9825,-2.207031 2.20703,-2.207031 z m 15.19336,4.888672 c -1.72683,0 -3.13672,1.409898 -3.13672,3.136718 0,1.72682 1.40989,3.13672 3.13672,3.13672 1.72682,0 3.13672,-1.4099 3.13672,-3.13672 0,-1.72682 -1.4099,-3.136718 -3.13672,-3.136718 z m 0,0.929688 c 1.22453,0 2.20703,0.9825 2.20703,2.20703 0,1.22453 -0.9825,2.20703 -2.20703,2.20703 -1.22453,0 -2.20703,-0.9825 -2.20703,-2.20703 0,-1.22453 0.9825,-2.20703 2.20703,-2.20703 z M 107.4082,91.554687 c -1.72682,0 -3.13672,1.409895 -3.13672,3.136719 0,1.726825 1.4099,3.134766 3.13672,3.134766 1.72683,0 3.13672,-1.407941 3.13672,-3.134766 0,-1.726824 -1.40989,-3.136719 -3.13672,-3.136719 z m 0,0.927735 c 1.22453,0 2.20703,0.984455 2.20703,2.208984 0,1.22453 -0.9825,2.207031 -2.20703,2.207031 -1.22453,0 -2.20703,-0.982501 -2.20703,-2.207031 0,-1.224529 0.9825,-2.208984 2.20703,-2.208984 z M 89.589844,108.21875 c -1.726825,0 -3.136719,1.40989 -3.136719,3.13672 0,1.72682 1.409894,3.13672 3.136719,3.13672 1.726824,0 3.136718,-1.4099 3.136718,-3.13672 0,-1.72683 -1.409894,-3.13672 -3.136718,-3.13672 z m 0,0.92969 c 1.224529,0 2.207031,0.9825 2.207031,2.20703 0,1.22453 -0.982502,2.20898 -2.207031,2.20898 -1.22453,0 -2.207032,-0.98445 -2.207032,-2.20898 0,-1.22453 0.982502,-2.20703 2.207032,-2.20703 z m 55.408206,2.69531 -6.44532,6.44336 0.70704,0.70703 6.15234,-6.15039 h 6.55859 v -1 z m -1.9336,26.26562 -0.70703,0.70704 3.69922,3.70117 h 4.25391 v -1 h -3.83985 z m -38.4375,28.25586 -0.69726,0.7168 8.97265,8.73438 0.69727,-0.71485 z m -13.873044,-0.23242 v 1 h 20.126954 l 2.95898,2.95899 h 5.375 v -1 h -4.96093 l -2.95899,-2.95899 z m 26.492184,-10.96484 -2.60156,6.44922 -5.25195,0.0312 0.006,1 5.92383,-0.0352 2.59765,-6.44531 h 1.68555 v -1 z m -20.546871,1.01758 -7.382813,7.38086 0.708985,0.70703 7.08789,-7.08789 h 4.582029 l 1.92774,2.02343 0.72461,-0.68945 -2.22266,-2.33398 z m -8.566407,-2.69141 v 1 h 20.703128 v -1 z m 10.253907,-9.46094 -0.707032,0.70703 6.345703,6.34571 0.70703,-0.70703 z m -4.869141,-0.17187 -4.554687,4.55664 H 77.980469 v 1 h 11.396484 l 4.554688,-4.55664 h 11.087889 l 4.19531,4.19726 h 3.3711 l 3.43945,-3.43945 -0.70703,-0.70703 -3.14648,3.14648 h -2.54297 l -4.19532,-4.19726 z m 14.658202,-8.73633 -0.82226,1.29492 0.8457,0.53516 0.52734,-0.83008 h 2.3711 v -1 z m -23.876952,3.47266 v 1 h 19.208982 v -1 z m 26.212892,-10.44727 -4.0293,4.0293 H 92.029297 v 1 h 14.867183 l 4.0293,-4.0293 h 4.23242 l 2.48633,2.48633 0.70703,-0.70703 -2.77929,-2.7793 z m 21.27734,0.67773 v 1 h 6.86524 l 4.38281,4.38282 h 2.24023 v -1 h -1.82617 l -4.38281,-4.38282 z m -23.00195,-4.02734 -3.63086,3.63086 0.70703,0.70703 3.63086,-3.63086 z m -10.439454,-3.71484 v 1 h 6.900394 l 3.5039,3.50195 h 13.7168 v -1 h -13.30273 l -3.50391,-3.50195 z m 37.544924,-19.18946 -11.41797,11.41602 0.70703,0.70703 11.125,-11.12305 h 7.77734 v -1 z m -4.02539,11.21094 -21.46094,0.0215 v 1 l 21.46094,-0.0215 z m -2.44922,-14.597654 -5.67383,5.673824 0.70703,0.70704 5.67383,-5.673833 z m -7.70313,-3.931641 v 4.21875 l -7.86914,7.869145 0.70703,0.70703 8.16211,-8.162113 V 94.578125 Z M 100.1875,106.51953 v 1 h 19.91016 v -1 z m -7.722656,4.39258 v 1 h 15.675786 l 3.82226,3.82227 0.70703,-0.70704 -4.11523,-4.11523 z m 3.951172,-16.919923 -9.507813,10.152343 0.730469,0.6836 9.210937,-9.835943 h 7.919921 v -1 z m 3.296875,7.345703 -2.449219,2.44922 H 82.605469 v 1 h 15.072265 l 2.449216,-2.44922 h 7.36133 v -1 z" /></g></g></g></g></svg>
