<?xml version="1.0" encoding="UTF-8" standalone="no"?>
<!-- Created with Inkscape (http://www.inkscape.org/) -->

<svg
   width="44.159576mm"
   height="41.750427mm"
   viewBox="0 0 44.159576 41.750427"
   version="1.1"
   id="svg5"
   xml:space="preserve"
   xmlns:xlink="http://www.w3.org/1999/xlink"
   xmlns="http://www.w3.org/2000/svg"
   xmlns:svg="http://www.w3.org/2000/svg"><defs
     id="defs2"><linearGradient
       id="linearGradient9854"><stop
         style="stop-color:#102c68;stop-opacity:1;"
         offset="0"
         id="stop9850" /><stop
         style="stop-color:#cf34a7;stop-opacity:1;"
         offset="1"
         id="stop9852" /></linearGradient><linearGradient
       xlink:href="#linearGradient9854"
       id="linearGradient36910"
       gradientUnits="userSpaceOnUse"
       x1="75.337532"
       y1="177.7442"
       x2="161.6635"
       y2="96.150383"
       gradientTransform="matrix(0.46249839,0,0,0.46249839,126.33168,210.00834)" /></defs><g
     id="layer1"
     transform="translate(-159.57941,-251.55468)"><path
       id="path36692"
       style="color:#000000;fill:url(#linearGradient36910);fill-opacity:1;stroke-width:0.462498;-inkscape-stroke:none"
       d="m 182.8922,251.55467 c -0.66605,0 -1.21182,0.54526 -1.21182,1.2113 0,0.5742 0.4056,1.05778 0.94413,1.18029 v 1.75544 l -3.57187,3.57188 h -6.38463 v 0.4625 h 9.20874 v -0.0434 c 0.0911,0.7123 0.70242,1.26659 1.43868,1.26659 0.79865,0 1.45107,-0.65242 1.45107,-1.45108 0,-0.50466 -0.26051,-0.95071 -0.65371,-1.21078 l 2.3828,-2.3828 c 0.20306,0.10846 0.43468,0.17002 0.68007,0.17002 0.79864,0 1.45055,-0.6519 1.45055,-1.45056 0,-0.79865 -0.65191,-1.45056 -1.45055,-1.45056 -0.79865,0 -1.45108,0.65191 -1.45108,1.45056 0,0.3858 0.15212,0.73746 0.39946,0.99787 l -2.46652,2.46652 c -0.10971,-0.0267 -0.2244,-0.0408 -0.34209,-0.0408 -0.73626,0 -1.34759,0.5543 -1.43868,1.26659 v -0.0506 h -2.16989 l 3.38016,-3.38016 v -1.93269 c 0.57406,-0.0939 1.01544,-0.59509 1.01544,-1.19476 0,-0.66604 -0.54422,-1.2113 -1.21026,-1.2113 z m 13.29117,0.39274 v 0.17725 1.66657 h 1.84382 v -1.84382 z m -13.31081,0.0698 c 0.006,-1.7e-4 0.0131,0 0.0196,0 0.4161,0 0.74775,0.3327 0.74775,0.74879 0,0.4161 -0.33165,0.74775 -0.74775,0.74775 -0.41609,0 -0.74931,-0.33165 -0.74931,-0.74775 0,-0.40959 0.3227,-0.73862 0.72967,-0.74879 z m 13.6648,0.2837 h 1.13636 v 1.13636 h -1.13636 z m -20.5295,0.0512 c -0.68764,0 -1.26672,0.48343 -1.41438,1.12758 h -3.66955 l -4.24211,4.52995 h -2.14509 v 0.46251 h 2.30735 l 0.0202,0.0191 0.0181,-0.0191 h 4.62504 l 1.13275,-1.13275 h 3.33571 c 0.1524,0.4949 0.61553,0.85731 1.15859,0.85731 0.66605,0 1.21026,-0.54524 1.21026,-1.21129 0,-0.66605 -0.54421,-1.21026 -1.21026,-1.21026 -0.62954,0 -1.15135,0.48601 -1.20665,1.10174 h -3.47885 l -1.13275,1.13274 h -4.00079 l 3.80907,-4.06745 h 3.43958 c 0.0705,0.73377 0.69213,1.31052 1.44384,1.31052 0.79866,0 1.45056,-0.65087 1.45056,-1.44953 0,-0.79865 -0.6519,-1.45107 -1.45056,-1.45107 z m 16.81448,0.31626 c -0.49359,0 -0.8971,0.40456 -0.8971,0.89813 0,0.49359 0.40351,0.89711 0.8971,0.89711 0.49358,0 0.89762,-0.40352 0.89762,-0.89711 0,-0.49357 -0.40404,-0.89813 -0.89762,-0.89813 z m -16.84083,0.11317 c 0.009,-2.2e-4 0.0175,0 0.0264,0 0.56634,0 1.02061,0.4553 1.02061,1.02164 0,0.56635 -0.45427,1.02061 -1.02061,1.02061 -0.56634,0 -1.02061,-0.45426 -1.02061,-1.02061 0,-0.55749 0.44029,-1.00772 0.99426,-1.02164 z m 16.84083,0.22996 c 0.30835,0 0.55449,0.24666 0.55449,0.555 0,0.30836 -0.24614,0.55449 -0.55449,0.55449 -0.30836,0 -0.55501,-0.24613 -0.55501,-0.55449 0,-0.30834 0.24665,-0.555 0.55501,-0.555 z m -14.04307,0.53588 v 0.23151 2.18023 h 2.41174 v -2.41174 z m 8.37003,0.0661 c 0.009,-2.2e-4 0.0175,0 0.0264,0 0.56634,0 1.02164,0.45427 1.02164,1.02061 0,0.56635 -0.4553,1.02061 -1.02164,1.02061 -0.56634,0 -1.02113,-0.45426 -1.02113,-1.02061 0,-0.55749 0.44081,-1.00671 0.99477,-1.02061 z m -7.90753,0.39636 h 1.48673 v 1.48673 h -1.48673 z m 20.84834,0.002 v 0.58342 0.72967 c 0,0.12872 0.0685,0.24295 0.17053,0.308 -0.0156,0.0405 -0.0243,0.0845 -0.0243,0.13022 0,0.19985 0.16401,0.36455 0.3638,0.36484 -0.006,1.18094 -0.0843,1.82415 -0.17467,2.21691 -0.0808,0.35126 -0.17192,0.50793 -0.24236,0.7059 -0.175,0.0263 -0.31161,0.17891 -0.31161,0.36071 0,0.0267 0.003,0.0529 0.009,0.078 -0.21035,0.0313 -0.37362,0.21502 -0.37362,0.43356 0,0.24015 0.19702,0.43719 0.43718,0.43719 h 3.35742 c 0.24015,0 0.4377,-0.19704 0.4377,-0.43719 0,-0.21853 -0.16328,-0.40228 -0.37363,-0.43356 0.006,-0.0251 0.008,-0.0514 0.008,-0.078 0,-0.18179 -0.13608,-0.33437 -0.31109,-0.36071 -0.0704,-0.19797 -0.16153,-0.35464 -0.24236,-0.7059 -0.0904,-0.39276 -0.1696,-1.03597 -0.1757,-2.21691 0.19978,-2.9e-4 0.36432,-0.16499 0.36432,-0.36484 0,-0.0457 -0.009,-0.0897 -0.0243,-0.13022 0.1022,-0.065 0.17053,-0.17912 0.17053,-0.308 v -1.16685 -0.14624 h -0.80253 v 0.43769 h -0.14625 v -0.43769 h -1.16737 v 0.43769 h -0.14573 v -0.43769 z m 0.29197,0.29145 h 0.21911 v 0.43822 h 0.72967 v -0.43822 h 0.58395 v 0.43822 h 0.72967 v -0.43822 h 0.21859 v 0.29197 h 5.2e-4 v 0.72967 c 0,0.0408 -0.0326,0.0734 -0.0734,0.0734 h -2.33526 c -0.0408,0 -0.0729,-0.0326 -0.0729,-0.0734 z m -2.47943,0.17002 c -0.42829,0.0109 -0.77463,0.36395 -0.77463,0.79478 0,0.23001 0.0986,0.43774 0.2558,0.58291 -0.14075,0.005 -0.2558,0.12268 -0.2558,0.26458 0,0.14506 0.1201,0.2643 0.2651,0.26459 -0.004,0.8119 -0.057,1.22981 -0.11679,1.45882 -0.0518,0.19866 -0.10488,0.25479 -0.15761,0.34365 -0.14094,0.005 -0.25528,0.12199 -0.25528,0.26407 0,0.0196 0.003,0.0389 0.007,0.0574 -0.15261,0.0229 -0.2713,0.15566 -0.2713,0.31419 0,0.17436 0.14345,0.31678 0.31781,0.31678 h 2.01383 c 0.17436,0 0.31678,-0.14242 0.31678,-0.31678 0,-0.1587 -0.11807,-0.29155 -0.27078,-0.31419 0.004,-0.0184 0.006,-0.0378 0.006,-0.0574 0,-0.14209 -0.11434,-0.25905 -0.25529,-0.26407 -0.0527,-0.0889 -0.10577,-0.14499 -0.15761,-0.34365 -0.0597,-0.22901 -0.11154,-0.64692 -0.11575,-1.45882 0.14499,-2.9e-4 0.26406,-0.11953 0.26406,-0.26459 0,-0.14225 -0.11461,-0.25983 -0.2558,-0.26458 0.15716,-0.14517 0.2558,-0.3529 0.2558,-0.58291 0,-0.43767 -0.35711,-0.79478 -0.79478,-0.79478 -0.007,0 -0.0139,-1.8e-4 -0.0207,0 z m 0.006,0.21135 c 0.005,-1.2e-4 0.01,0 0.015,0 0.32313,0 0.58239,0.2603 0.58239,0.58343 0,0.31809 -0.25133,0.57446 -0.5674,0.58239 h -0.03 c -0.31607,-0.008 -0.56792,-0.2643 -0.56792,-0.58239 0,-0.31808 0.25185,-0.57546 0.56792,-0.58343 z m 2.69235,1.00511 h 2.04328 c 0.0408,0 0.0734,0.0326 0.0734,0.0734 0,0.0408 -0.0326,0.0734 -0.0734,0.0734 H 200.601 c -0.0408,0 -0.0724,-0.0326 -0.0724,-0.0734 0,-0.0408 0.0315,-0.0734 0.0724,-0.0734 z m -6.39806,0.18448 c -0.7343,0 -1.34454,0.55136 -1.43816,1.26091 h -3.58273 l -5.18934,5.18831 -6.42907,0.007 -1.02526,-1.02526 h -7.33495 c -0.10015,-0.70234 -0.70696,-1.2454 -1.43609,-1.2454 -0.79866,0 -1.45107,0.6519 -1.45107,1.45056 0,0.79865 0.65241,1.45055 1.45107,1.45055 0.71094,0 1.30576,-0.51635 1.42782,-1.19321 h 7.1515 l 1.48622,1.48622 c -0.59326,0.18213 -1.02733,0.73615 -1.02733,1.38751 0,0.79865 0.65242,1.45056 1.45107,1.45056 0.79865,0 1.45056,-0.65191 1.45056,-1.45056 0,-0.73821 -0.55724,-1.35116 -1.27227,-1.4397 l -0.40928,-0.40928 9.29452,-0.009 v -0.0605 c 0.10216,0.70008 0.70805,1.24126 1.43557,1.24126 0.79866,0 1.45056,-0.65242 1.45056,-1.45107 0,-0.79866 -0.6519,-1.45056 -1.45056,-1.45056 -0.73341,0 -1.34342,0.54999 -1.43815,1.25832 l -2.67012,0.003 4.72632,-4.7253 h 3.40393 c 0.12826,0.66926 0.7197,1.17823 1.42524,1.17823 0.79865,0 1.45055,-0.65243 1.45055,-1.45108 0,-0.79866 -0.6519,-1.45056 -1.45055,-1.45056 z m 3.18585,0.18811 c 0.002,-1.8e-4 0.003,0 0.005,0 h 1.05988 c 0.0297,0 0.0522,0.0236 0.0522,0.0532 0,0.0296 -0.0226,0.0532 -0.0522,0.0532 h -1.05988 c -0.0296,0 -0.0532,-0.0236 -0.0532,-0.0532 0,-0.0278 0.0211,-0.0505 0.0481,-0.0532 z m 3.49384,0.0656 h 1.48053 c 0.009,1.1451 0.0772,1.86763 0.1726,2.28254 0.0786,0.34155 0.15255,0.47655 0.21601,0.63614 h -2.25826 c 0.0635,-0.15961 0.13792,-0.29456 0.21652,-0.63614 0.0955,-0.41491 0.16359,-1.13744 0.1726,-2.28254 z m -23.76754,0.10955 c 0.006,-1.6e-4 0.0131,0 0.0196,0 0.41609,0 0.74776,0.33167 0.74776,0.74776 0,0.4161 -0.33167,0.74879 -0.74776,0.74879 -0.4161,0 -0.74879,-0.33269 -0.74879,-0.74879 0,-0.40959 0.32218,-0.73761 0.72915,-0.74776 z m 17.08785,0.0667 c 0.56634,0 1.02061,0.45426 1.02061,1.02061 0,0.56634 -0.45427,1.02113 -1.02061,1.02113 -0.56635,0 -1.02113,-0.45479 -1.02113,-1.02113 0,-0.56635 0.45478,-1.02061 1.02113,-1.02061 z m 3.39462,0.076 h 0.65216 c 0.006,0.78088 0.0497,1.25991 0.11575,1.51308 0.0463,0.17757 0.0888,0.21865 0.13333,0.28887 h -1.15084 c 0.0444,-0.0702 0.0876,-0.1113 0.13385,-0.28887 0.0661,-0.25317 0.10943,-0.7322 0.11575,-1.51308 z m -0.46922,2.01331 h 1.59008 c 0.0296,0 0.0532,0.0236 0.0532,0.0532 0,0.0278 -0.0206,0.0505 -0.0475,0.0532 h -1.60094 c -0.0269,-0.003 -0.047,-0.0255 -0.047,-0.0532 0,-0.0297 0.0226,-0.0532 0.0522,-0.0532 z m -13.81259,0.094 c 0.56635,0 1.02112,0.45427 1.02112,1.02061 0,0.56635 -0.45477,1.02113 -1.02112,1.02113 -0.56634,0 -1.02061,-0.45478 -1.02061,-1.02113 0,-0.56634 0.45427,-1.02061 1.02061,-1.02061 z m 13.60123,0.22376 h 2.01383 c 0.0588,0 0.10542,0.0482 0.10542,0.10697 0,0.0588 -0.0466,0.10542 -0.10542,0.10542 h -2.01383 c -0.0588,0 -0.10645,-0.0466 -0.10645,-0.10542 0,-0.0588 0.0477,-0.10697 0.10645,-0.10697 z m -5.77949,0.0227 -1.20923,2.09444 h 2.41846 l -0.15761,-0.27285 z m 9.09195,0.60461 h 2.78743 c 0.0372,0.004 0.0656,0.0346 0.0656,0.0729 0,0.0408 -0.0326,0.0734 -0.0734,0.0734 h -2.77244 c -0.0408,0 -0.0729,-0.0326 -0.0729,-0.0734 0,-0.0383 0.0284,-0.0692 0.0656,-0.0729 z m -9.09195,0.12299 0.57929,1.00304 h -1.15858 z m 8.8067,0.31471 h 3.35742 c 0.0809,0 0.14572,0.0658 0.14572,0.14676 0,0.0809 -0.0648,0.14521 -0.14572,0.14521 h -3.35742 c -0.0809,0 -0.14521,-0.0643 -0.14521,-0.14521 0,-0.0809 0.0643,-0.14676 0.14521,-0.14676 z m -32.20372,0.71314 c 0.009,-2.2e-4 0.018,0 0.0269,0 0.56634,0 1.02061,0.45426 1.02061,1.02061 0,0.56634 -0.45427,1.02164 -1.02061,1.02164 -0.56634,0 -1.02113,-0.4553 -1.02113,-1.02164 0,-0.5575 0.44029,-1.00672 0.99426,-1.02061 z m 29.86329,0.35295 c -0.5564,0 -1.02773,0.3801 -1.16788,0.89348 h -3.04271 l -2.9807,2.98018 0.32711,0.3266 2.84531,-2.84427 h 2.81688 c 0.0724,0.59817 0.58515,1.06608 1.20199,1.06608 0.66605,0 1.2113,-0.54576 1.2113,-1.21181 0,-0.66605 -0.54525,-1.21026 -1.2113,-1.21026 z m 0,0.4625 c 0.4161,0 0.74879,0.33166 0.74879,0.74776 0,0.4161 -0.33269,0.74931 -0.74879,0.74931 -0.41609,0 -0.74776,-0.33321 -0.74776,-0.74931 0,-0.4161 0.33167,-0.74776 0.74776,-0.74776 z m -8.84804,0.18604 c 0.56634,0 1.02165,0.4553 1.02165,1.02164 0,0.56634 -0.45531,1.02061 -1.02165,1.02061 -0.56634,0 -1.02061,-0.45427 -1.02061,-1.02061 0,-0.56634 0.45427,-1.02164 1.02061,-1.02164 z m 6.03323,1.56993 v 4.98987 h 0.74 v -4.98987 z m -16.53233,0.55913 c 0.56634,0 1.02061,0.45479 1.02061,1.02113 0,0.56635 -0.45427,1.02061 -1.02061,1.02061 -0.56635,0 -1.02112,-0.45426 -1.02112,-1.02061 0,-0.56634 0.45477,-1.02113 1.02112,-1.02113 z m 2.46962,0.0858 v 0.23151 2.17971 h 2.41174 v -2.41122 z m 0.4625,0.4625 h 1.48673 v 1.48622 h -1.48673 z m 19.0438,0.10232 c -0.48302,0.0124 -0.87385,0.41174 -0.87385,0.89762 0,0.49358 0.40353,0.8971 0.89711,0.8971 0.49359,0 0.89813,-0.40352 0.89813,-0.8971 0,-0.49359 -0.40454,-0.89762 -0.89813,-0.89762 -0.008,0 -0.0156,-2e-4 -0.0233,0 z m -12.89688,0.006 v 4.72064 h 9.57512 v -0.4625 h -9.11262 v -4.25814 z m 12.90567,0.33693 c 0.005,-1.2e-4 0.01,0 0.0145,0 0.30836,0 0.55449,0.24613 0.55449,0.55449 0,0.30835 -0.24613,0.55501 -0.55449,0.55501 -0.30835,0 -0.55449,-0.24666 -0.55449,-0.55501 0,-0.30354 0.23844,-0.54696 0.54002,-0.55449 z m -6.75928,0.20774 v 3.22926 h 0.73949 v -3.22926 z m -22.93245,0.0848 c -0.79866,0 -1.45107,0.65242 -1.45107,1.45108 0,0.79864 0.65241,1.45055 1.45107,1.45055 0.75963,0 1.38645,-0.58994 1.44591,-1.3348 h 3.01377 l 1.44642,1.44539 -1.48932,1.48932 0.32712,0.32711 1.64227,-1.64228 h 5.90972 c 0.0734,0.73093 0.69372,1.30535 1.44332,1.30535 0.79865,0 1.45056,-0.65242 1.45056,-1.45108 0,-0.79865 -0.65191,-1.45056 -1.45056,-1.45056 -0.68982,0 -1.27002,0.48658 -1.41541,1.13379 h -6.05235 l -1.62057,-1.61954 h -3.2427 c -0.15622,-0.63237 -0.72893,-1.10433 -1.40818,-1.10433 z m 21.62504,0.33331 v 2.8112 h 0.74 v -2.8112 z m -21.65191,0.0972 c 0.009,-2.2e-4 0.018,0 0.0269,0 0.56634,0 1.02061,0.45426 1.02061,1.02061 0,0.56633 -0.45427,1.0206 -1.02061,1.0206 -0.56635,0 -1.02164,-0.45427 -1.02164,-1.0206 0,-0.5575 0.44077,-1.00672 0.99477,-1.02061 z m 20.34398,1.01957 v 1.69447 h 0.74104 v -1.69447 z m -2.61431,0.22789 v 1.46658 h 0.74 v -1.46658 z m -3.96359,0.3421 c 0.56634,0 1.02061,0.45427 1.02061,1.02061 0,0.56635 -0.45427,1.02113 -1.02061,1.02113 -0.56634,0 -1.02061,-0.45478 -1.02061,-1.02113 0,-0.56634 0.45427,-1.02061 1.02061,-1.02061 z m 5.271,0.26924 v 0.85524 h 0.73949 v -0.85524 z m 9.69501,0.32711 c -0.65179,0.0167 -1.17977,0.55565 -1.17977,1.21129 0,0.66605 0.54473,1.21027 1.21078,1.21027 0.66605,0 1.2113,-0.54422 1.2113,-1.21027 0,-0.66604 -0.54525,-1.21129 -1.2113,-1.21129 -0.0104,0 -0.0207,-2.7e-4 -0.031,0 z m 0.0114,0.4625 c 0.006,-1.6e-4 0.0131,0 0.0196,0 0.4161,0 0.74879,0.3327 0.74879,0.74879 0,0.4161 -0.33269,0.74776 -0.74879,0.74776 -0.4161,0 -0.74827,-0.33166 -0.74827,-0.74776 0,-0.40958 0.32169,-0.73861 0.72863,-0.74879 z m -12.83539,1.15135 c -0.79865,0 -1.45107,0.65243 -1.45107,1.45108 0,0.79865 0.65242,1.45056 1.45107,1.45056 0.79866,0 1.45056,-0.65191 1.45056,-1.45056 0,-0.18817 -0.036,-0.36853 -0.1018,-0.53382 h 2.67994 l 2.02675,2.02675 h 0.98236 c 0.021,0.78057 0.66509,1.41128 1.45056,1.41128 0.79866,0 1.45056,-0.65242 1.45056,-1.45107 0,-0.79865 -0.6519,-1.45056 -1.45056,-1.45056 -0.66271,0 -1.22477,0.44918 -1.39681,1.05834 v -0.0305 h -0.8444 l -2.02726,-2.02675 h -3.16725 c -0.26477,-0.27961 -0.639,-0.45476 -1.05265,-0.45476 z m -8.98756,0.14108 -1.86346,1.86345 h -6.52156 c -0.12293,-0.67566 -0.7171,-1.19062 -1.42731,-1.19062 -0.79865,0 -1.45107,0.65139 -1.45107,1.45004 0,0.79866 0.65242,1.45056 1.45107,1.45056 0.72974,0 1.33671,-0.54428 1.43609,-1.24747 h 6.7045 l 1.86346,-1.86346 h 1.9575 l 1.1498,1.14981 0.32711,-0.3266 -1.28519,-1.28571 z m 8.98756,0.28887 c 0.35798,0 0.67113,0.18176 0.85318,0.45837 v 0.0289 h 0.0181 c 0.0947,0.15501 0.14934,0.33779 0.14934,0.53382 0,0.56634 -0.45426,1.02061 -1.02061,1.02061 -0.56634,0 -1.02113,-0.45427 -1.02113,-1.02061 0,-0.56634 0.45479,-1.02113 1.02113,-1.02113 z m -18.82676,0.81339 c 0.009,-2.2e-4 0.018,0 0.0269,0 0.56634,0 1.02061,0.45427 1.02061,1.02061 0,0.56635 -0.45427,1.02164 -1.02061,1.02164 -0.56634,0 -1.02112,-0.45529 -1.02112,-1.02164 0,-0.55749 0.44028,-1.00672 0.99425,-1.02061 z m 27.31513,0.64027 c 0.56635,0 1.02061,0.45426 1.02061,1.02061 0,0.56634 -0.45426,1.02113 -1.02061,1.02113 -0.56633,0 -1.02061,-0.45479 -1.02061,-1.02113 0,-0.56635 0.45428,-1.02061 1.02061,-1.02061 z m -16.2543,0.34882 c -0.64021,0 -1.16821,0.5037 -1.2082,1.13429 h -1.09347 l -0.32556,0.51315 c -0.14871,-0.0517 -0.30799,-0.0801 -0.47388,-0.0801 -0.70377,0 -1.29344,0.50627 -1.42368,1.17306 h -8.75606 c -0.13867,-0.65605 -0.72394,-1.15135 -1.42006,-1.15135 -0.79865,0 -1.45056,0.6519 -1.45056,1.45055 0,0.79865 0.65191,1.45056 1.45056,1.45056 0.7434,0 1.36003,-0.565 1.44177,-1.28726 h 8.71885 c 0.0913,0.71205 0.7031,1.26556 1.43918,1.26556 0.79865,0 1.45056,-0.65191 1.45056,-1.45056 0,-0.46724 -0.22329,-0.88412 -0.56844,-1.1498 l 0.17208,-0.2713 h 0.89969 c 0.16188,0.47828 0.61588,0.82475 1.14722,0.82475 0.66604,0 1.21129,-0.54422 1.21129,-1.21026 0,-0.66605 -0.54525,-1.21129 -1.21129,-1.21129 z m -0.0196,0.4625 c 0.006,-1.6e-4 0.0131,0 0.0196,0 0.41609,0 0.74879,0.33269 0.74879,0.74879 0,0.41609 -0.3327,0.74776 -0.74879,0.74776 -0.4161,0 -0.74828,-0.33167 -0.74828,-0.74776 0,-0.4096 0.32169,-0.73861 0.72864,-0.74879 z m 8.14317,0.66197 c -0.35299,0 -0.64635,0.26951 -0.68419,0.61289 l -3.55121,2.79052 c -0.10355,-0.24976 -0.35018,-0.42684 -0.63614,-0.42684 -0.37842,0 -0.68833,0.30991 -0.68833,0.68833 0,0.37843 0.30991,0.68833 0.68833,0.68833 0.2528,0 0.47512,-0.1385 0.5948,-0.34313 l 0.67179,1.0082 -0.67179,1.00769 c -0.11964,-0.2048 -0.34188,-0.34313 -0.5948,-0.34313 -0.37842,0 -0.68833,0.3099 -0.68833,0.68833 0,0.37842 0.30991,0.68833 0.68833,0.68833 0.28596,0 0.53259,-0.17708 0.63614,-0.42685 l 3.55121,2.79105 c 0.0378,0.34337 0.3312,0.61288 0.68419,0.61288 0.35877,0 0.65585,-0.27853 0.68575,-0.62993 l 3.57084,-4.08089 c 0.11358,0.22497 0.34706,0.38034 0.61495,0.38034 0.37842,0 0.68833,-0.3099 0.68833,-0.68833 0,-0.37842 -0.30991,-0.68833 -0.68833,-0.68833 -0.26814,0 -0.502,0.15555 -0.61547,0.38085 l -3.57032,-4.08037 c -0.0299,-0.35141 -0.32698,-0.62994 -0.68575,-0.62994 z m 0,0.29353 c 0.21945,0 0.39481,0.17535 0.39481,0.3948 0,0.21945 -0.17536,0.39378 -0.39481,0.39378 -0.21946,0 -0.39377,-0.17433 -0.39377,-0.39378 0,-0.21945 0.17431,-0.3948 0.39377,-0.3948 z m -11.25099,0.57929 c 0.009,-2.2e-4 0.0175,0 0.0264,0 0.56634,0 1.02061,0.45427 1.02061,1.02061 0,0.56635 -0.45427,1.02061 -1.02061,1.02061 -0.56634,0 -1.02061,-0.45426 -1.02061,-1.02061 0,-0.55749 0.44029,-1.00671 0.99426,-1.02061 z m -11.59981,0.0217 c 0.009,-2.2e-4 0.0175,0 0.0264,0 0.56634,0 1.02112,0.45427 1.02112,1.02061 0,0.56634 -0.45478,1.02061 -1.02112,1.02061 -0.56634,0 -1.02061,-0.45427 -1.02061,-1.02061 0,-0.55749 0.44029,-1.00671 0.99425,-1.02061 z m 23.46575,0.10077 3.02721,3.46026 -2.95951,-1.69086 c -0.044,-0.3369 -0.33432,-0.59944 -0.68265,-0.59944 -0.33686,0 -0.61946,0.2455 -0.67748,0.56637 l -1.22369,0.262 1.30638,-1.95957 c 0.1197,0.20455 0.34205,0.34261 0.59479,0.34261 0.26826,0 0.50155,-0.15589 0.61495,-0.38137 z m -1.78904,0.37776 -1.13998,1.70945 -1.42523,0.30541 z m 6.88485,0.017 -0.32711,0.32711 1.71101,1.71204 h 1.73839 l 1.27021,1.14515 1.418,-1.57354 -1.57251,-1.41749 -1.24644,1.38338 h -1.41645 z m 4.26693,0.76688 0.97048,0.87436 -0.87385,0.96945 -0.97048,-0.87436 z m -9.97769,0.30179 c 0.21945,0 0.39481,0.17535 0.39481,0.39481 0,0.21945 -0.17536,0.39377 -0.39481,0.39377 -0.21946,0 -0.39377,-0.17432 -0.39377,-0.39377 0,-0.21946 0.17431,-0.39481 0.39377,-0.39481 z m -8.76225,0.11472 c -0.49358,0 -0.89711,0.40351 -0.89711,0.8971 0,0.49359 0.40353,0.89814 0.89711,0.89814 0.49359,0 0.89813,-0.40455 0.89813,-0.89814 0,-0.49359 -0.40454,-0.8971 -0.89813,-0.8971 z m -0.0145,0.34262 c 0.005,-1.2e-4 0.01,0 0.0145,0 0.30836,0 0.55448,0.24613 0.55448,0.55448 0,0.30836 -0.24612,0.55449 -0.55448,0.55449 -0.30835,0 -0.55449,-0.24613 -0.55449,-0.55449 0,-0.30353 0.23844,-0.54695 0.54002,-0.55448 z m 9.42526,0.16794 3.12746,1.78749 h -3.10369 c -0.0677,-0.30866 -0.34417,-0.54208 -0.67231,-0.54208 -0.30956,0 -0.57315,0.20779 -0.65887,0.49041 l -1.2883,-0.45992 1.3193,-1.22525 c 0.10808,0.23945 0.34939,0.40721 0.62787,0.40721 0.29775,0 0.55321,-0.19173 0.64854,-0.45786 z m -1.68207,0.0253 -1.22628,1.13894 -0.38602,-0.13797 0.51004,-0.76481 z m -3.83801,0.16174 c 0.21945,0 0.39481,0.17433 0.39481,0.39378 0,0.21946 -0.17536,0.39481 -0.39481,0.39481 -0.21945,0 -0.39377,-0.17535 -0.39377,-0.39481 0,-0.21945 0.17432,-0.39378 0.39377,-0.39378 z m 2.32286,0.1633 -0.38292,0.57413 -0.86041,-0.30748 z m -1.15652,0.6103 0.60513,0.21652 -0.14211,0.21343 z m -13.49943,0.006 -2.10633,2.10737 h -5.03277 c -0.14712,-0.64489 -0.72622,-1.12913 -1.41439,-1.12913 -0.79865,0 -1.45055,0.65242 -1.45055,1.45107 0,0.79866 0.6519,1.45056 1.45055,1.45056 0.7512,0 1.37263,-0.57686 1.44384,-1.31 h 5.19452 l 2.10685,-2.10736 h 1.78903 l 2.8789,2.87889 0.32711,-0.32711 -2.55178,-2.55178 h 2.68459 l 1.94045,1.94148 h 1.55908 l 1.5906,-1.59112 -0.32711,-0.32659 -1.45521,1.45521 h -1.17616 l -1.93993,-1.94149 z m 14.39033,0.31265 0.3111,0.1111 -0.36949,0.34365 -0.1509,-0.14056 z m 0.62374,0.22272 1.21129,0.43253 -1.21129,0.43253 -0.46612,-0.43253 z m -1.32395,0.0377 0.10697,0.0992 -0.0202,0.0305 z m 3.51451,5.1e-4 c 0.21945,0 0.39481,0.17433 0.39481,0.39378 0,0.21946 -0.17536,0.3948 -0.39481,0.3948 -0.21946,0 -0.39377,-0.17534 -0.39377,-0.3948 0,-0.21945 0.17431,-0.39378 0.39377,-0.39378 z m 4.87154,0 c 0.21945,0 0.39481,0.17433 0.39481,0.39378 0,0.21946 -0.17536,0.3948 -0.39481,0.3948 -0.21946,0 -0.39378,-0.17534 -0.39378,-0.3948 0,-0.21945 0.17432,-0.39378 0.39378,-0.39378 z m -8.06049,0.30128 0.0997,0.093 -0.0997,0.093 -0.062,-0.093 z m 3.86126,0.23977 h 3.10472 l -3.12849,1.78801 c -0.0953,-0.26622 -0.35073,-0.45837 -0.64854,-0.45837 -0.27832,0 -0.51971,0.16797 -0.62787,0.40721 l -1.3193,-1.22473 1.2883,-0.45992 c 0.086,0.28213 0.34966,0.48886 0.65887,0.48886 0.32797,0 0.60441,-0.23264 0.67231,-0.54106 z m -3.545,0.0543 0.36949,0.34314 -0.3111,0.1111 -0.20929,-0.31419 z m -0.55501,0.0641 0.0202,0.0305 -0.10697,0.0997 z m -22.33042,0.17519 c 0.56634,0 1.02061,0.45478 1.02061,1.02112 0,0.56635 -0.45427,1.02061 -1.02061,1.02061 -0.56634,0 -1.02061,-0.45426 -1.02061,-1.02061 0,-0.56634 0.45427,-1.02112 1.02061,-1.02112 z m 22.51594,0.10387 0.14263,0.21342 -0.60513,0.21601 z m 6.8833,0.0196 -3.02617,3.45922 c -0.1134,-0.22548 -0.34669,-0.38137 -0.61495,-0.38137 -0.25278,0 -0.47511,0.13853 -0.59479,0.34313 l -1.30742,-1.96112 1.22473,0.262 v 5.2e-4 c 0.0578,0.32111 0.34044,0.56689 0.67748,0.56689 0.34813,0 0.63791,-0.26232 0.68213,-0.59893 z m -5.90093,0.20671 1.22628,1.13843 -1.10226,-0.23616 -0.51004,-0.7643 z m -2.61173,0.18862 c 0.21945,0 0.39481,0.17431 0.39481,0.39377 0,0.21945 -0.17536,0.39481 -0.39481,0.39481 -0.21945,0 -0.39377,-0.17536 -0.39377,-0.39481 0,-0.21946 0.17432,-0.39377 0.39377,-0.39377 z m 1.94045,0.0512 0.38293,0.57412 -1.24437,-0.26665 z m -0.80718,0.62063 1.4242,0.30489 1.14102,1.71049 z m 3.73827,0.14004 c 0.21945,0 0.39481,0.17432 0.39481,0.39378 0,0.21945 -0.17536,0.39481 -0.39481,0.39481 -0.21946,0 -0.39377,-0.17536 -0.39377,-0.39481 0,-0.21946 0.17431,-0.39378 0.39377,-0.39378 z m -8.94726,0.50127 c -0.71852,0 -1.31829,0.52794 -1.43143,1.21543 h -9.2599 c -0.0952,-0.57292 -0.59601,-1.0139 -1.19476,-1.0139 -0.66604,0 -1.21026,0.54525 -1.21026,1.2113 0,0.66605 0.54422,1.2113 1.21026,1.2113 0.57529,0 1.06029,-0.40665 1.18184,-0.94672 h 9.27127 c 0.10942,0.6918 0.71138,1.22422 1.43298,1.22422 0.79866,0 1.45056,-0.65191 1.45056,-1.45056 0,-0.79866 -0.6519,-1.45107 -1.45056,-1.45107 z m 0,0.42994 c 0.56634,0 1.02165,0.45479 1.02165,1.02113 0,0.56634 -0.45531,1.02164 -1.02165,1.02164 -0.56634,0 -1.02112,-0.4553 -1.02112,-1.02164 0,-0.56634 0.45478,-1.02113 1.02112,-1.02113 z m -11.88609,0.2341 c 0.4161,0 0.74879,0.3327 0.74879,0.74879 0,0.41609 -0.33269,0.74879 -0.74879,0.74879 -0.41609,0 -0.74776,-0.3327 -0.74776,-0.74879 0,-0.41609 0.33167,-0.74879 0.74776,-0.74879 z m 16.53439,0.24753 c -0.62072,0 -1.13673,0.47387 -1.20406,1.07745 l -0.72709,5.2e-4 -1.20354,2.98276 -2.4288,0.014 0.003,0.46251 2.73936,-0.016 1.20148,-2.98121 h 0.45372 c 0.14417,0.50763 0.61352,0.88211 1.16582,0.88211 0.66605,0 1.2113,-0.54474 1.2113,-1.21078 0,-0.66605 -0.54525,-1.21129 -1.2113,-1.21129 z m 7.45226,0.39687 v 7.17941 h 1.46347 v -7.17941 z m -7.45226,0.0656 c 0.4161,0 0.74879,0.33269 0.74879,0.74879 0,0.41609 -0.33269,0.74828 -0.74879,0.74828 -0.41609,0 -0.74879,-0.33219 -0.74879,-0.74828 0,-0.4161 0.3327,-0.74879 0.74879,-0.74879 z m 4.29896,0.28991 c 0.21945,0 0.39481,0.17431 0.39481,0.39377 0,0.21945 -0.17536,0.39481 -0.39481,0.39481 -0.21946,0 -0.39377,-0.17536 -0.39377,-0.39481 0,-0.21946 0.17431,-0.39377 0.39377,-0.39377 z m 1.8185,0.71003 -1.01751,0.10387 0.0217,0.21446 0.57258,-0.0589 c -0.22655,0.24818 -0.70211,0.74656 -1.58337,1.5844 -0.67452,0.64127 -1.0804,0.90355 -1.29863,1.002 -0.10912,0.0492 -0.17084,0.057 -0.19275,0.0574 -0.004,8e-5 -0.005,1.3e-4 -0.007,0 0.005,0.001 0.0295,0.0155 0.0295,0.0155 l -0.17415,0.25321 c 0,0 0.0339,0.0203 0.0605,0.0279 0.0266,0.008 0.0593,0.0117 0.0977,0.0109 0.0768,-0.001 0.17657,-0.0228 0.31264,-0.0842 0.27215,-0.12277 0.69587,-0.4058 1.38441,-1.06041 0.9099,-0.86506 1.39708,-1.37902 1.62212,-1.62677 l 0.0615,0.59945 0.21446,-0.0217 z m -17.5519,0.0858 -3.27887,3.27836 c -0.18346,-0.0842 -0.38717,-0.13126 -0.60152,-0.13126 -0.79865,0 -1.45056,0.65242 -1.45056,1.45107 0,0.79865 0.65191,1.45056 1.45056,1.45056 0.63603,0 1.17877,-0.41368 1.37356,-0.98547 h 5.8751 l 4.05608,3.9486 c -0.0833,0.18265 -0.12971,0.38579 -0.12971,0.59893 0,0.79866 0.6519,1.45055 1.45056,1.45055 0.79865,0 1.45056,-0.65189 1.45056,-1.45055 0,-0.79865 -0.65191,-1.45108 -1.45056,-1.45108 -0.4172,0 -0.79422,0.17818 -1.05937,0.46199 l -3.65404,-3.55844 h 2.52749 l 1.3684,1.36839 h 2.37298 c 0.0869,0.5822 0.59143,1.0325 1.19682,1.0325 0.66605,0 1.2113,-0.54526 1.2113,-1.2113 0,-0.66605 -0.54525,-1.21026 -1.2113,-1.21026 -0.56838,0 -1.04819,0.39637 -1.17667,0.92656 h -2.20141 l -1.36891,-1.36839 h -9.18032 c 0,-8.7e-4 0,-0.002 0,-0.003 0,-0.41535 -0.17623,-0.7913 -0.45785,-1.05626 l 3.07939,-3.0794 h 2.11926 l 0.72398,0.76016 c -0.20497,0.21723 -0.33124,0.50964 -0.33124,0.82992 0,0.66605 0.54524,1.21026 1.21129,1.21026 0.66605,0 1.21181,-0.54421 1.21181,-1.21026 0,-0.66605 -0.54576,-1.21129 -1.21181,-1.21129 -0.17816,0 -0.34747,0.0391 -0.50023,0.10903 l -0.90537,-0.95033 z m 11.43237,1.18598 -1.418,1.57355 0.1509,0.1359 1.42265,1.2821 1.418,-1.57355 z m -7.53649,0.11782 c 0.006,-1.6e-4 0.0126,0 0.0191,0 0.41609,0 0.74931,0.3327 0.74931,0.74879 0,0.4161 -0.33322,0.74776 -0.74931,0.74776 -0.4161,0 -0.74879,-0.33166 -0.74879,-0.74776 0,-0.40959 0.3227,-0.73861 0.72967,-0.74879 z m 7.56646,0.4563 0.96945,0.87385 -0.87384,0.96945 -0.96945,-0.87385 z m 4.90255,0.55087 v 3.63131 h 1.46296 v -3.63131 z m -20.24528,1.26608 c 0.56635,0 1.02061,0.45477 1.02061,1.02112 0,0.56634 -0.45426,1.02061 -1.02061,1.02061 -0.56634,0 -1.02061,-0.45427 -1.02061,-1.02061 0,-0.56635 0.45427,-1.02112 1.02061,-1.02112 z m 17.72295,0.60254 v 1.8402 h 1.46451 v -1.8402 z m -2.3642,1.3255 c 0.006,-1.6e-4 0.0126,0 0.0191,0 0.4161,0 0.7488,0.33166 0.7488,0.74776 0,0.41609 -0.3327,0.74879 -0.7488,0.74879 -0.41608,0 -0.74775,-0.3327 -0.74775,-0.74879 0,-0.4096 0.3217,-0.73761 0.72863,-0.74776 z m 2.3456,0.91158 v 0.35398 h 8.04757 v -0.35398 z m -5.07876,2.17299 c 0.56634,0 1.02061,0.45479 1.02061,1.02113 0,0.56635 -0.45427,1.02164 -1.02061,1.02164 -0.56635,0 -1.02061,-0.45529 -1.02061,-1.02164 0,-0.56634 0.45426,-1.02113 1.02061,-1.02113 z" /></g></svg>
